{
  "source": "C:\\Users\\Peter\\Desktop\\stuff\\MIUN\\quantitative_research\\video_compression\\videos\\UVG\\YachtRide_1920x1080_120fps_420_8bit_YUV.y4m",
  "output": "C:\\Users\\Peter\\Desktop\\stuff\\MIUN\\quantitative_research\\video_compression\\compressed_videos\\UVG\\av1\\1\\YachtRide_1920x1080_120fps_420_8bit_YUV_av1.mkv",
  "codec": "av1",
  "ok": "[yuv4mpegpipe @ 00000196ab2c5380] Stream #0: not enough frames to estimate rate; consider increasing probesize\nInput #0, yuv4mpegpipe, from 'C:\\Users\\Peter\\Desktop\\stuff\\MIUN\\quantitative_research\\video_compression\\videos\\UVG\\YachtRide_1920x1080_120fps_420_8bit_YUV.y4m':\n  Duration: 00:00:05.00, start: 0.000000, bitrate: 2985989 kb/s\n  Stream #0:0: Video: rawvideo (I420 / 0x30323449), yuv420p(progressive), 1920x1080, 120 fps, 120 tbr, 120 tbn\n[out#0/matroska @ 00000196ab2c90c0] Codec AVOption b:a (set bitrate (in bits/s)) has not been used for any stream. The most likely reason is either wrong type (e.g. a video option with no video streams) or that it is a private option of some decoder which was not actually used for any stream.\nStream mapping:\n  Stream #0:0 -> #0:0 (rawvideo (native) -> av1 (libsvtav1))\nPress [q] to stop, [?] for help\nSvt[info]: -------------------------------------------\nSvt[info]: SVT [version]:\tSVT-AV1 Encoder Lib v3.1.0-19-g6ecfe8ec\nSvt[info]: SVT [build]  :\tGCC 15.2.0\t 64 bit\nSvt[info]: LIB Build date: Aug 17 2025 11:37:13\nSvt[info]: -------------------------------------------\n[libsvtav1 @ 00000196ab2cc1c0] Specified chroma sample location center is unsupported on the AV1 bit stream level. Usage of a container that allows passing this information - such as Matroska - is recommended.\nSvt[info]: Level of Parallelism: 5\nSvt[info]: Number of PPCS 93\nSvt[info]: [asm level on system : up to avx2]\nSvt[info]: [asm level selected : up to avx2]\nSvt[info]: -------------------------------------------\nSvt[info]: SVT [config]: main profile\ttier (auto)\tlevel (auto)\nSvt[info]: SVT [config]: width / height / fps numerator / fps denominator \t\t: 1920 / 1080 / 120 / 1\nSvt[info]: SVT [config]: bit-depth / color format \t\t\t\t\t: 8 / YUV420\nSvt[info]: SVT [config]: preset / tune / pred struct \t\t\t\t\t: 4 / PSNR / random access\nSvt[info]: SVT [config]: gop size / mini-gop size / key-frame type \t\t\t: 641 / 16 / key frame\nSvt[info]: SVT [config]: BRC mode / target bitrate (kbps)\t\t\t\t: VBR / 1000 \nSvt[info]: SVT [config]: AQ mode / Variance Boost \t\t\t\t\t: 2 / 0\nSvt[info]: SVT [config]: sharpness / luminance-based QP bias \t\t\t\t: 0 / 0\nSvt[info]: SVT [config]: QP scale compress strength \t\t\t\t\t: 0\nSvt[info]: -------------------------------------------\nOutput #0, matroska, to 'C:\\Users\\Peter\\Desktop\\stuff\\MIUN\\quantitative_research\\video_compression\\compressed_videos\\UVG\\av1\\1\\YachtRide_1920x1080_120fps_420_8bit_YUV_av1.mkv':\n  Metadata:\n    encoder         : Lavf62.3.100\n  Stream #0:0: Video: av1 (AV01 / 0x31305641), yuv420p(tv, progressive), 1920x1080, q=2-31, 1000 kb/s, 120 fps, 1k tbn\n    Metadata:\n      encoder         : Lavc62.11.100 libsvtav1\n    Side data:\n      cpb: bitrate max/min/avg: 0/0/1000000 buffer size: 1000000 vbv_delay: N/A\nframe=    0 fps=0.0 q=0.0 size=       0KiB time=N/A bitrate=N/A speed=N/A elapsed=0:00:02.41    \nframe=    0 fps=0.0 q=0.0 size=       0KiB time=N/A bitrate=N/A speed=N/A elapsed=0:00:03.82    \nframe=    0 fps=0.0 q=0.0 size=       0KiB time=N/A bitrate=N/A speed=N/A elapsed=0:00:04.33    \nframe=    0 fps=0.0 q=0.0 size=       0KiB time=N/A bitrate=N/A speed=N/A elapsed=0:00:04.85    \nframe=    0 fps=0.0 q=0.0 size=       0KiB time=N/A bitrate=N/A speed=N/A elapsed=0:00:05.36    \nframe=    0 fps=0.0 q=0.0 size=       0KiB time=N/A bitrate=N/A speed=N/A elapsed=0:00:05.88    \nframe=    0 fps=0.0 q=0.0 size=       0KiB time=N/A bitrate=N/A speed=N/A elapsed=0:00:06.39    \nframe=    0 fps=0.0 q=0.0 size=       0KiB time=N/A bitrate=N/A speed=N/A elapsed=0:00:06.91    \nframe=    0 fps=0.0 q=0.0 size=       0KiB time=N/A bitrate=N/A speed=N/A elapsed=0:00:07.43    \nframe=    0 fps=0.0 q=0.0 size=       0KiB time=N/A bitrate=N/A speed=N/A elapsed=0:00:07.94    \nframe=    0 fps=0.0 q=0.0 size=       0KiB time=N/A bitrate=N/A speed=N/A elapsed=0:00:08.45    \nframe=    0 fps=0.0 q=0.0 size=       0KiB time=N/A bitrate=N/A speed=N/A elapsed=0:00:08.98    \nframe=    0 fps=0.0 q=0.0 size=       0KiB time=N/A bitrate=N/A speed=N/A elapsed=0:00:09.49    \nframe=    0 fps=0.0 q=0.0 size=       0KiB time=N/A bitrate=N/A speed=N/A elapsed=0:00:10.01    \nframe=    0 fps=0.0 q=0.0 size=       0KiB time=N/A bitrate=N/A speed=N/A elapsed=0:00:10.52    \nframe=    0 fps=0.0 q=0.0 size=       0KiB time=N/A bitrate=N/A speed=N/A elapsed=0:00:11.04    \nframe=    0 fps=0.0 q=0.0 size=       0KiB time=N/A bitrate=N/A speed=N/A elapsed=0:00:11.56    \nframe=    0 fps=0.0 q=0.0 size=       0KiB time=N/A bitrate=N/A speed=N/A elapsed=0:00:12.07    \nframe=    0 fps=0.0 q=0.0 size=       0KiB time=N/A bitrate=N/A speed=N/A elapsed=0:00:12.58    \nframe=    0 fps=0.0 q=0.0 size=       0KiB time=N/A bitrate=N/A speed=N/A elapsed=0:00:13.10    \nframe=    0 fps=0.0 q=0.0 size=       0KiB time=N/A bitrate=N/A speed=N/A elapsed=0:00:13.62    \nframe=    1 fps=0.1 q=46.0 size=       1KiB time=00:00:00.00 bitrate=N/A speed=   0x elapsed=0:00:14.14    \nframe=    1 fps=0.1 q=46.0 size=       1KiB time=00:00:00.00 bitrate=N/A speed=   0x elapsed=0:00:14.65    \nframe=    1 fps=0.1 q=46.0 size=       1KiB time=00:00:00.00 bitrate=N/A speed=   0x elapsed=0:00:15.17    \nframe=    1 fps=0.1 q=46.0 size=       1KiB time=00:00:00.00 bitrate=N/A speed=   0x elapsed=0:00:15.69    \nframe=    1 fps=0.1 q=46.0 size=       1KiB time=00:00:00.00 bitrate=N/A speed=   0x elapsed=0:00:16.21    \nframe=    1 fps=0.1 q=46.0 size=       1KiB time=00:00:00.00 bitrate=N/A speed=   0x elapsed=0:00:16.73    \nframe=    2 fps=0.1 q=63.0 size=       1KiB time=00:00:00.00 bitrate= 537.6kbits/s speed=0.000483x elapsed=0:00:17.24    \nframe=    6 fps=0.3 q=60.0 size=       1KiB time=00:00:00.04 bitrate= 107.5kbits/s speed=0.00235x elapsed=0:00:17.75    \nframe=    7 fps=0.4 q=60.0 size=       1KiB time=00:00:00.05 bitrate=  89.6kbits/s speed=0.00274x elapsed=0:00:18.27    \nframe=    7 fps=0.4 q=60.0 size=       1KiB time=00:00:00.05 bitrate=  89.6kbits/s speed=0.00266x elapsed=0:00:18.79    \nframe=   10 fps=0.5 q=59.0 size=       1KiB time=00:00:00.07 bitrate=  59.7kbits/s speed=0.00388x elapsed=0:00:19.30    \nframe=   11 fps=0.6 q=60.0 size=       1KiB time=00:00:00.08 bitrate=  53.8kbits/s speed=0.0042x elapsed=0:00:19.81    \nframe=   13 fps=0.6 q=58.0 size=       1KiB time=00:00:00.10 bitrate=  44.8kbits/s speed=0.00492x elapsed=0:00:20.33    \nframe=   16 fps=0.8 q=58.0 size=       1KiB time=00:00:00.12 bitrate=  35.8kbits/s speed=0.00599x elapsed=0:00:20.86    \nframe=   18 fps=0.8 q=57.0 size=       1KiB time=00:00:00.14 bitrate=  31.6kbits/s speed=0.00663x elapsed=0:00:21.37    \nframe=   19 fps=0.9 q=58.0 size=       1KiB time=00:00:00.15 bitrate=  29.9kbits/s speed=0.00685x elapsed=0:00:21.89    \nframe=   23 fps=1.0 q=59.0 size=       1KiB time=00:00:00.18 bitrate=  24.4kbits/s speed=0.00818x elapsed=0:00:22.41    \nframe=   23 fps=1.0 q=59.0 size=       1KiB time=00:00:00.18 bitrate=  24.4kbits/s speed=0.008x elapsed=0:00:22.92    \nframe=   25 fps=1.1 q=57.0 size=       1KiB time=00:00:00.20 bitrate=  22.4kbits/s speed=0.00853x elapsed=0:00:23.46    \nframe=   28 fps=1.2 q=57.0 size=       1KiB time=00:00:00.22 bitrate=  19.9kbits/s speed=0.00938x elapsed=0:00:23.97    \nframe=   29 fps=1.2 q=58.0 size=       1KiB time=00:00:00.23 bitrate=  19.2kbits/s speed=0.00953x elapsed=0:00:24.49    \nframe=   31 fps=1.2 q=59.0 size=       1KiB time=00:00:00.25 bitrate=  17.9kbits/s speed=0.00999x elapsed=0:00:25.01    \nframe=   32 fps=1.3 q=57.0 size=       1KiB time=00:00:00.25 bitrate=  17.3kbits/s speed=0.0101x elapsed=0:00:25.52    \nframe=   34 fps=1.3 q=57.0 size=       1KiB time=00:00:00.27 bitrate=  16.3kbits/s speed=0.0106x elapsed=0:00:26.04    \nframe=   36 fps=1.4 q=53.0 size=       1KiB time=00:00:00.29 bitrate=  15.4kbits/s speed=0.011x elapsed=0:00:26.55    \nframe=   38 fps=1.4 q=63.0 size=       1KiB time=00:00:00.30 bitrate=  14.5kbits/s speed=0.0114x elapsed=0:00:27.08    \nframe=   39 fps=1.4 q=59.0 size=       1KiB time=00:00:00.31 bitrate=  14.1kbits/s speed=0.0115x elapsed=0:00:27.58    \nframe=   40 fps=1.4 q=59.0 size=       1KiB time=00:00:00.32 bitrate=  13.8kbits/s speed=0.0116x elapsed=0:00:28.10    \nframe=   42 fps=1.5 q=59.0 size=       1KiB time=00:00:00.34 bitrate=  13.1kbits/s speed=0.0119x elapsed=0:00:28.62    \nframe=   43 fps=1.5 q=59.0 size=       1KiB time=00:00:00.35 bitrate=  12.8kbits/s speed=0.012x elapsed=0:00:29.14    \nframe=   45 fps=1.5 q=58.0 size=       1KiB time=00:00:00.36 bitrate=  12.2kbits/s speed=0.0124x elapsed=0:00:29.65    \nframe=   46 fps=1.5 q=60.0 size=       1KiB time=00:00:00.37 bitrate=  11.9kbits/s speed=0.0124x elapsed=0:00:30.16    \nframe=   51 fps=1.7 q=61.0 size=       1KiB time=00:00:00.41 bitrate=  10.8kbits/s speed=0.0136x elapsed=0:00:30.68    \nframe=   51 fps=1.6 q=61.0 size=       1KiB time=00:00:00.41 bitrate=  10.8kbits/s speed=0.0134x elapsed=0:00:31.20    \nframe=   54 fps=1.7 q=60.0 size=       1KiB time=00:00:00.44 bitrate=  10.1kbits/s speed=0.0139x elapsed=0:00:31.71    \nframe=   54 fps=1.7 q=60.0 size=       1KiB time=00:00:00.44 bitrate=  10.1kbits/s speed=0.0137x elapsed=0:00:32.22    \nframe=   55 fps=1.7 q=57.0 size=       1KiB time=00:00:00.45 bitrate=  10.0kbits/s speed=0.0137x elapsed=0:00:32.75    \nframe=   60 fps=1.8 q=61.0 size=       1KiB time=00:00:00.49 bitrate=   9.1kbits/s speed=0.0148x elapsed=0:00:33.26    \nframe=   61 fps=1.8 q=58.0 size=       1KiB time=00:00:00.50 bitrate=   9.0kbits/s speed=0.0148x elapsed=0:00:33.77    \nframe=   66 fps=1.9 q=63.0 size=       1KiB time=00:00:00.54 bitrate=   8.3kbits/s speed=0.0158x elapsed=0:00:34.29    \nframe=   67 fps=1.9 q=62.0 size=       1KiB time=00:00:00.55 bitrate=   8.1kbits/s speed=0.0158x elapsed=0:00:34.80    \nframe=   69 fps=2.0 q=60.0 size=       1KiB time=00:00:00.56 bitrate=   7.9kbits/s speed=0.016x elapsed=0:00:35.32    \nframe=   72 fps=2.0 q=63.0 size=       1KiB time=00:00:00.59 bitrate=   7.6kbits/s speed=0.0165x elapsed=0:00:35.84    \nframe=   74 fps=2.0 q=63.0 size=       1KiB time=00:00:00.60 bitrate=   7.4kbits/s speed=0.0167x elapsed=0:00:36.35    \nframe=   77 fps=2.1 q=60.0 size=       1KiB time=00:00:00.63 bitrate=   7.1kbits/s speed=0.0172x elapsed=0:00:36.87    \nframe=   79 fps=2.1 q=62.0 size=       1KiB time=00:00:00.65 bitrate=   6.9kbits/s speed=0.0174x elapsed=0:00:37.37    \nframe=   81 fps=2.1 q=52.0 size=       1KiB time=00:00:00.66 bitrate=   6.7kbits/s speed=0.0176x elapsed=0:00:37.90    \nframe=   83 fps=2.2 q=62.0 size=       1KiB time=00:00:00.68 bitrate=   6.6kbits/s speed=0.0178x elapsed=0:00:38.41    \nframe=   86 fps=2.2 q=63.0 size=       1KiB time=00:00:00.70 bitrate=   6.3kbits/s speed=0.0182x elapsed=0:00:38.93    \nframe=   88 fps=2.2 q=63.0 size=       1KiB time=00:00:00.72 bitrate=   6.2kbits/s speed=0.0184x elapsed=0:00:39.46    \nframe=   92 fps=2.3 q=63.0 size=       1KiB time=00:00:00.75 bitrate=   5.9kbits/s speed=0.0189x elapsed=0:00:40.01    \nframe=   95 fps=2.3 q=61.0 size=       1KiB time=00:00:00.78 bitrate=   5.7kbits/s speed=0.0192x elapsed=0:00:40.69    \nframe=   99 fps=2.4 q=62.0 size=       1KiB time=00:00:00.81 bitrate=   5.5kbits/s speed=0.0198x elapsed=0:00:41.22    \nframe=  101 fps=2.4 q=61.0 size=       1KiB time=00:00:00.83 bitrate=   5.4kbits/s speed=0.02x elapsed=0:00:41.72    \nframe=  103 fps=2.4 q=62.0 size=       1KiB time=00:00:00.85 bitrate=   5.3kbits/s speed=0.0201x elapsed=0:00:42.24    \nframe=  104 fps=2.4 q=63.0 size=       1KiB time=00:00:00.85 bitrate=   5.2kbits/s speed=0.0201x elapsed=0:00:42.76    \nframe=  107 fps=2.5 q=62.0 size=       1KiB time=00:00:00.88 bitrate=   5.1kbits/s speed=0.0204x elapsed=0:00:43.28    \nframe=  111 fps=2.5 q=62.0 size=       1KiB time=00:00:00.91 bitrate=   4.9kbits/s speed=0.0209x elapsed=0:00:43.79    \nframe=  112 fps=2.5 q=63.0 size=       1KiB time=00:00:00.92 bitrate=   4.8kbits/s speed=0.0209x elapsed=0:00:44.30    \nframe=  115 fps=2.6 q=62.0 size=       1KiB time=00:00:00.95 bitrate=   4.7kbits/s speed=0.0212x elapsed=0:00:44.82    \nframe=  117 fps=2.6 q=61.0 size=       1KiB time=00:00:00.96 bitrate=   4.6kbits/s speed=0.0213x elapsed=0:00:45.33    \nframe=  120 fps=2.6 q=63.0 size=       1KiB time=00:00:00.99 bitrate=   4.5kbits/s speed=0.0216x elapsed=0:00:45.85    \nframe=  122 fps=2.6 q=63.0 size=       1KiB time=00:00:01.00 bitrate=   4.4kbits/s speed=0.0217x elapsed=0:00:46.36    \nframe=  125 fps=2.7 q=61.0 size=       1KiB time=00:00:01.03 bitrate=   4.3kbits/s speed=0.022x elapsed=0:00:46.88    \nframe=  129 fps=2.7 q=53.0 size=       1KiB time=00:00:01.06 bitrate=   4.2kbits/s speed=0.0225x elapsed=0:00:47.40    \nframe=  132 fps=2.8 q=63.0 size=       1KiB time=00:00:01.09 bitrate=   4.1kbits/s speed=0.0228x elapsed=0:00:47.92    \nframe=  133 fps=2.7 q=62.0 size=       1KiB time=00:00:01.10 bitrate=   4.1kbits/s speed=0.0227x elapsed=0:00:48.43    \nframe=  135 fps=2.8 q=63.0 size=       1KiB time=00:00:01.12 bitrate=   4.0kbits/s speed=0.023x elapsed=0:00:48.95    \nframe=  138 fps=2.8 q=63.0 size=       1KiB time=00:00:01.14 bitrate=   3.9kbits/s speed=0.0231x elapsed=0:00:49.46    \nframe=  140 fps=2.8 q=59.0 size=       1KiB time=00:00:01.15 bitrate=   3.9kbits/s speed=0.0232x elapsed=0:00:49.97    \nframe=  142 fps=2.8 q=62.0 size=       1KiB time=00:00:01.17 bitrate=   3.8kbits/s speed=0.0233x elapsed=0:00:50.49    \nframe=  144 fps=2.8 q=62.0 size=       1KiB time=00:00:01.19 bitrate=   3.8kbits/s speed=0.0234x elapsed=0:00:51.00    \nframe=  148 fps=2.9 q=63.0 size=       1KiB time=00:00:01.22 bitrate=   3.7kbits/s speed=0.0238x elapsed=0:00:51.53    \nframe=  149 fps=2.9 q=62.0 size=       1KiB time=00:00:01.23 bitrate=   3.6kbits/s speed=0.0237x elapsed=0:00:52.04    \nframe=  150 fps=2.9 q=63.0 size=       1KiB time=00:00:01.24 bitrate=   3.6kbits/s speed=0.0236x elapsed=0:00:52.55    \nframe=  153 fps=2.9 q=59.0 size=       1KiB time=00:00:01.26 bitrate=   3.5kbits/s speed=0.0239x elapsed=0:00:53.08    \nframe=  155 fps=2.9 q=62.0 size=       1KiB time=00:00:01.28 bitrate=   3.5kbits/s speed=0.0239x elapsed=0:00:53.58    \nframe=  158 fps=2.9 q=61.0 size=       1KiB time=00:00:01.30 bitrate=   3.4kbits/s speed=0.0242x elapsed=0:00:54.10    \nframe=  158 fps=2.9 q=61.0 size=       1KiB time=00:00:01.30 bitrate=   3.4kbits/s speed=0.024x elapsed=0:00:54.61    \nframe=  160 fps=2.9 q=62.0 size=       1KiB time=00:00:01.32 bitrate=   3.4kbits/s speed=0.024x elapsed=0:00:55.13    \nframe=  165 fps=3.0 q=61.0 size=       1KiB time=00:00:01.36 bitrate=   3.3kbits/s speed=0.0246x elapsed=0:00:55.65    \nframe=  166 fps=3.0 q=63.0 size=       1KiB time=00:00:01.37 bitrate=   3.3kbits/s speed=0.0245x elapsed=0:00:56.17    \nframe=  167 fps=2.9 q=62.0 size=       1KiB time=00:00:01.38 bitrate=   3.2kbits/s speed=0.0244x elapsed=0:00:56.68    \nframe=  169 fps=3.0 q=59.0 size=       1KiB time=00:00:01.40 bitrate=   3.2kbits/s speed=0.0245x elapsed=0:00:57.19    \nframe=  171 fps=3.0 q=62.0 size=       1KiB time=00:00:01.41 bitrate=   3.2kbits/s speed=0.0245x elapsed=0:00:57.71    \nframe=  173 fps=3.0 q=61.0 size=       1KiB time=00:00:01.43 bitrate=   3.1kbits/s speed=0.0246x elapsed=0:00:58.22    \nframe=  176 fps=3.0 q=61.0 size=       1KiB time=00:00:01.45 bitrate=   3.1kbits/s speed=0.0248x elapsed=0:00:58.73    \nframe=  178 fps=3.0 q=63.0 size=       1KiB time=00:00:01.47 bitrate=   3.0kbits/s speed=0.0249x elapsed=0:00:59.26    \nframe=  181 fps=3.0 q=62.0 size=       1KiB time=00:00:01.50 bitrate=   3.0kbits/s speed=0.0251x elapsed=0:00:59.77    \nframe=  184 fps=3.1 q=63.0 size=       1KiB time=00:00:01.52 bitrate=   2.9kbits/s speed=0.0253x elapsed=0:01:00.29    \nframe=  188 fps=3.1 q=63.0 size=       1KiB time=00:00:01.55 bitrate=   2.9kbits/s speed=0.0256x elapsed=0:01:00.80    \nframe=  192 fps=3.1 q=63.0 size=       1KiB time=00:00:01.59 bitrate=   2.8kbits/s speed=0.026x elapsed=0:01:01.33    \nframe=  195 fps=3.2 q=63.0 size=       1KiB time=00:00:01.61 bitrate=   2.8kbits/s speed=0.0261x elapsed=0:01:01.83    \nframe=  198 fps=3.2 q=63.0 size=       1KiB time=00:00:01.64 bitrate=   2.7kbits/s speed=0.0263x elapsed=0:01:02.35    \nframe=  199 fps=3.2 q=63.0 size=       1KiB time=00:00:01.65 bitrate=   2.7kbits/s speed=0.0262x elapsed=0:01:02.87    \nframe=  202 fps=3.2 q=63.0 size=       1KiB time=00:00:01.67 bitrate=   2.7kbits/s speed=0.0264x elapsed=0:01:03.39    \nframe=  206 fps=3.2 q=63.0 size=       1KiB time=00:00:01.70 bitrate=   2.6kbits/s speed=0.0267x elapsed=0:01:03.89    \nframe=  206 fps=3.2 q=63.0 size=       1KiB time=00:00:01.70 bitrate=   2.6kbits/s speed=0.0265x elapsed=0:01:04.41    \nframe=  210 fps=3.2 q=63.0 size=       1KiB time=00:00:01.74 bitrate=   2.6kbits/s speed=0.0268x elapsed=0:01:04.93    \nframe=  213 fps=3.3 q=61.0 size=       1KiB time=00:00:01.76 bitrate=   2.5kbits/s speed=0.027x elapsed=0:01:05.44    \nframe=  215 fps=3.3 q=62.0 size=       1KiB time=00:00:01.78 bitrate=   2.5kbits/s speed=0.027x elapsed=0:01:05.96    \nframe=  217 fps=3.3 q=59.0 size=       1KiB time=00:00:01.80 bitrate=   2.5kbits/s speed=0.0271x elapsed=0:01:06.47    \nframe=  217 fps=3.2 q=59.0 size=       1KiB time=00:00:01.80 bitrate=   2.5kbits/s speed=0.0269x elapsed=0:01:06.99    \nframe=  221 fps=3.3 q=61.0 size=       1KiB time=00:00:01.83 bitrate=   2.4kbits/s speed=0.0272x elapsed=0:01:07.51    \nframe=  223 fps=3.3 q=62.0 size=       1KiB time=00:00:01.85 bitrate=   2.4kbits/s speed=0.0272x elapsed=0:01:08.03    \nframe=  226 fps=3.3 q=63.0 size=       1KiB time=00:00:01.87 bitrate=   2.4kbits/s speed=0.0274x elapsed=0:01:08.53    \nframe=  230 fps=3.3 q=63.0 size=       1KiB time=00:00:01.90 bitrate=   2.3kbits/s speed=0.0276x elapsed=0:01:09.06    \nframe=  233 fps=3.3 q=59.0 size=       1KiB time=00:00:01.93 bitrate=   2.3kbits/s speed=0.0278x elapsed=0:01:09.56    \nframe=  238 fps=3.4 q=63.0 size=       1KiB time=00:00:01.97 bitrate=   2.3kbits/s speed=0.0282x elapsed=0:01:10.08    \nframe=  239 fps=3.4 q=62.0 size=       1KiB time=00:00:01.98 bitrate=   2.3kbits/s speed=0.0281x elapsed=0:01:10.61    \nframe=  241 fps=3.4 q=54.0 size=       1KiB time=00:00:02.00 bitrate=   2.2kbits/s speed=0.0281x elapsed=0:01:11.11    \nframe=  242 fps=3.4 q=63.0 size=       1KiB time=00:00:02.00 bitrate=   2.2kbits/s speed=0.028x elapsed=0:01:11.63    \nframe=  245 fps=3.4 q=61.0 size=       1KiB time=00:00:02.03 bitrate=   2.2kbits/s speed=0.0282x elapsed=0:01:12.14    \nframe=  246 fps=3.4 q=63.0 size=       1KiB time=00:00:02.04 bitrate=   2.2kbits/s speed=0.0281x elapsed=0:01:12.66    \nframe=  247 fps=3.4 q=62.0 size=       1KiB time=00:00:02.05 bitrate=   2.2kbits/s speed=0.028x elapsed=0:01:13.18    \nframe=  252 fps=3.4 q=63.0 size=       1KiB time=00:00:02.09 bitrate=   2.1kbits/s speed=0.0284x elapsed=0:01:13.69    \nframe=  254 fps=3.4 q=63.0 size=       1KiB time=00:00:02.10 bitrate=   2.1kbits/s speed=0.0284x elapsed=0:01:14.21    \nframe=  257 fps=3.4 q=54.0 size=       1KiB time=00:00:02.13 bitrate=   2.1kbits/s speed=0.0285x elapsed=0:01:14.72    \nframe=  261 fps=3.5 q=61.0 size=       1KiB time=00:00:02.16 bitrate=   2.1kbits/s speed=0.0288x elapsed=0:01:15.25    \nframe=  263 fps=3.5 q=62.0 size=       1KiB time=00:00:02.18 bitrate=   2.1kbits/s speed=0.0288x elapsed=0:01:15.76    \nframe=  265 fps=3.5 q=59.0 size=       1KiB time=00:00:02.20 bitrate=   2.0kbits/s speed=0.0288x elapsed=0:01:16.27    \nframe=  269 fps=3.5 q=61.0 size=       1KiB time=00:00:02.23 bitrate=   2.0kbits/s speed=0.0291x elapsed=0:01:16.79    \nframe=  270 fps=3.5 q=63.0 size=       1KiB time=00:00:02.24 bitrate=   2.0kbits/s speed=0.029x elapsed=0:01:17.32    \nframe=  274 fps=3.5 q=63.0 size=       1KiB time=00:00:02.27 bitrate=   2.0kbits/s speed=0.0292x elapsed=0:01:17.84    \nframe=  277 fps=3.5 q=62.0 size=       1KiB time=00:00:02.30 bitrate=   1.9kbits/s speed=0.0294x elapsed=0:01:18.36    \nframe=  279 fps=3.5 q=63.0 size=       1KiB time=00:00:02.31 bitrate=   1.9kbits/s speed=0.0294x elapsed=0:01:18.86    \nframe=  283 fps=3.6 q=62.0 size=       1KiB time=00:00:02.35 bitrate=   1.9kbits/s speed=0.0296x elapsed=0:01:19.38    \nframe=  286 fps=3.6 q=61.0 size=       1KiB time=00:00:02.37 bitrate=   1.9kbits/s speed=0.0297x elapsed=0:01:19.89    \nframe=  286 fps=3.6 q=61.0 size=       1KiB time=00:00:02.37 bitrate=   1.9kbits/s speed=0.0295x elapsed=0:01:20.41    \nframe=  288 fps=3.6 q=62.0 size=       1KiB time=00:00:02.39 bitrate=   1.9kbits/s speed=0.0296x elapsed=0:01:20.93    \nframe=  290 fps=3.6 q=63.0 size=       1KiB time=00:00:02.40 bitrate=   1.9kbits/s speed=0.0296x elapsed=0:01:21.46    \nframe=  293 fps=3.6 q=61.0 size=       1KiB time=00:00:02.43 bitrate=   1.8kbits/s speed=0.0297x elapsed=0:01:21.98    \nframe=  294 fps=3.6 q=63.0 size=       1KiB time=00:00:02.44 bitrate=   1.8kbits/s speed=0.0296x elapsed=0:01:22.50    \nframe=  297 fps=3.6 q=59.0 size=       1KiB time=00:00:02.46 bitrate=   1.8kbits/s speed=0.0297x elapsed=0:01:23.01    \nframe=  301 fps=3.6 q=61.0 size=       1KiB time=00:00:02.50 bitrate=   1.8kbits/s speed=0.0299x elapsed=0:01:23.53    \nframe=  303 fps=3.6 q=62.0 size=       1KiB time=00:00:02.51 bitrate=   1.8kbits/s speed=0.0299x elapsed=0:01:24.04    \nframe=  306 fps=3.6 q=63.0 size=       1KiB time=00:00:02.54 bitrate=   1.8kbits/s speed=0.0301x elapsed=0:01:24.57    \nframe=  309 fps=3.6 q=61.0 size=       1KiB time=00:00:02.56 bitrate=   1.7kbits/s speed=0.0302x elapsed=0:01:25.09    \nframe=  309 fps=3.6 q=61.0 size=       1KiB time=00:00:02.56 bitrate=   1.7kbits/s speed=0.03x elapsed=0:01:25.60    \nframe=  312 fps=3.6 q=63.0 size=       1KiB time=00:00:02.59 bitrate=   1.7kbits/s speed=0.0301x elapsed=0:01:26.11    \nframe=  314 fps=3.6 q=63.0 size=       1KiB time=00:00:02.60 bitrate=   1.7kbits/s speed=0.0301x elapsed=0:01:26.63    \nframe=  316 fps=3.6 q=63.0 size=       1KiB time=00:00:02.62 bitrate=   1.7kbits/s speed=0.0301x elapsed=0:01:27.15    \nframe=  320 fps=3.7 q=62.0 size=       1KiB time=00:00:02.65 bitrate=   1.7kbits/s speed=0.0303x elapsed=0:01:27.66    \nframe=  323 fps=3.7 q=63.0 size=       1KiB time=00:00:02.68 bitrate=   1.7kbits/s speed=0.0304x elapsed=0:01:28.17    \nframe=  325 fps=3.7 q=61.0 size=       1KiB time=00:00:02.70 bitrate=   1.7kbits/s speed=0.0304x elapsed=0:01:28.69    \nframe=  327 fps=3.7 q=62.0 size=       1KiB time=00:00:02.71 bitrate=   1.6kbits/s speed=0.0305x elapsed=0:01:29.21    \nframe=  330 fps=3.7 q=63.0 size=       1KiB time=00:00:02.74 bitrate=   1.6kbits/s speed=0.0306x elapsed=0:01:29.72    \nframe=  333 fps=3.7 q=61.0 size=       1KiB time=00:00:02.76 bitrate=   1.6kbits/s speed=0.0307x elapsed=0:01:30.25    \nframe=  336 fps=3.7 q=62.0 size=       1KiB time=00:00:02.77 bitrate=   1.6kbits/s speed=0.0306x elapsed=0:01:30.75    \nframe=  341 fps=3.7 q=61.0 size=       1KiB time=00:00:02.83 bitrate=   1.6kbits/s speed=0.031x elapsed=0:01:31.35    \nframe=  342 fps=3.7 q=63.0 size=       1KiB time=00:00:02.84 bitrate=   1.6kbits/s speed=0.0309x elapsed=0:01:31.89    \nframe=  346 fps=3.7 q=63.0 size=       1KiB time=00:00:02.87 bitrate=   1.6kbits/s speed=0.0311x elapsed=0:01:32.43    \nframe=  348 fps=3.7 q=63.0 size=       1KiB time=00:00:02.89 bitrate=   1.5kbits/s speed=0.0311x elapsed=0:01:32.96    \nframe=  353 fps=3.8 q=54.0 size=       1KiB time=00:00:02.93 bitrate=   1.5kbits/s speed=0.0314x elapsed=0:01:33.47    \nframe=  356 fps=3.8 q=63.0 size=       1KiB time=00:00:02.95 bitrate=   1.5kbits/s speed=0.0315x elapsed=0:01:34.03    \nframe=  357 fps=3.8 q=62.0 size=       1KiB time=00:00:02.96 bitrate=   1.5kbits/s speed=0.0314x elapsed=0:01:34.56    \nframe=  360 fps=3.8 q=63.0 size=       1KiB time=00:00:02.98 bitrate=   1.5kbits/s speed=0.0313x elapsed=0:01:35.17    \nframe=  362 fps=3.8 q=63.0 size=       1KiB time=00:00:03.00 bitrate=   1.5kbits/s speed=0.0314x elapsed=0:01:35.75    \nframe=  366 fps=3.8 q=61.0 size=       1KiB time=00:00:03.04 bitrate=   1.5kbits/s speed=0.0316x elapsed=0:01:36.27    \nframe=  371 fps=3.8 q=63.0 size=       1KiB time=00:00:03.08 bitrate=   1.5kbits/s speed=0.0318x elapsed=0:01:36.86    \nframe=  373 fps=3.8 q=62.0 size=       1KiB time=00:00:03.10 bitrate=   1.4kbits/s speed=0.0318x elapsed=0:01:37.38    \nframe=  378 fps=3.9 q=63.0 size=       1KiB time=00:00:03.13 bitrate=   1.4kbits/s speed=0.032x elapsed=0:01:37.92    \nframe=  381 fps=3.9 q=61.0 size=       1KiB time=00:00:03.16 bitrate=   1.4kbits/s speed=0.0322x elapsed=0:01:38.45    \nframe=  382 fps=3.9 q=61.0 size=       1KiB time=00:00:03.17 bitrate=   1.4kbits/s speed=0.0321x elapsed=0:01:38.99    \nframe=  384 fps=3.9 q=62.0 size=       1KiB time=00:00:03.18 bitrate=   1.4kbits/s speed=0.032x elapsed=0:01:39.57    \nframe=  387 fps=3.9 q=62.0 size=       1KiB time=00:00:03.21 bitrate=   1.4kbits/s speed=0.0321x elapsed=0:01:40.15    \nframe=  389 fps=3.9 q=61.0 size=       1KiB time=00:00:03.23 bitrate=   1.4kbits/s speed=0.0321x elapsed=0:01:40.67    \nframe=  389 fps=3.8 q=61.0 size=       1KiB time=00:00:03.23 bitrate=   1.4kbits/s speed=0.0319x elapsed=0:01:41.25    \nframe=  392 fps=3.8 q=63.0 size=       1KiB time=00:00:03.25 bitrate=   1.4kbits/s speed=0.0319x elapsed=0:01:41.83    \nframe=  394 fps=3.8 q=63.0 size=       1KiB time=00:00:03.27 bitrate=   1.4kbits/s speed=0.032x elapsed=0:01:42.43    \nframe=  394 fps=3.8 q=63.0 size=       1KiB time=00:00:03.27 bitrate=   1.4kbits/s speed=0.0318x elapsed=0:01:43.03    \nframe=  398 fps=3.8 q=61.0 size=       1KiB time=00:00:03.30 bitrate=   1.4kbits/s speed=0.0319x elapsed=0:01:43.55    \nframe=  399 fps=3.8 q=59.0 size=       1KiB time=00:00:03.31 bitrate=   1.4kbits/s speed=0.0319x elapsed=0:01:44.11    \nframe=  403 fps=3.9 q=62.0 size=       1KiB time=00:00:03.35 bitrate=   1.3kbits/s speed=0.032x elapsed=0:01:44.64    \nframe=  406 fps=3.9 q=63.0 size=       1KiB time=00:00:03.37 bitrate=   1.3kbits/s speed=0.0321x elapsed=0:01:45.23    \nframe=  411 fps=3.9 q=62.0 size=       1KiB time=00:00:03.40 bitrate=   1.3kbits/s speed=0.0322x elapsed=0:01:45.77    \nframe=  413 fps=3.9 q=61.0 size=       1KiB time=00:00:03.43 bitrate=   1.3kbits/s speed=0.0323x elapsed=0:01:46.40    \nframe=  414 fps=3.9 q=63.0 size=       1KiB time=00:00:03.44 bitrate=   1.3kbits/s speed=0.0322x elapsed=0:01:46.92    \nframe=  416 fps=3.9 q=63.0 size=       1KiB time=00:00:03.45 bitrate=   1.3kbits/s speed=0.0322x elapsed=0:01:47.44    \nframe=  418 fps=3.9 q=63.0 size=       1KiB time=00:00:03.47 bitrate=   1.3kbits/s speed=0.0322x elapsed=0:01:47.95    \nframe=  421 fps=3.9 q=61.0 size=       1KiB time=00:00:03.50 bitrate=   1.3kbits/s speed=0.0323x elapsed=0:01:48.48    \nframe=  426 fps=3.9 q=63.0 size=       1KiB time=00:00:03.54 bitrate=   1.3kbits/s speed=0.0325x elapsed=0:01:49.01    \nframe=  430 fps=3.9 q=61.0 size=       1KiB time=00:00:03.57 bitrate=   1.3kbits/s speed=0.0326x elapsed=0:01:49.52    \nframe=  433 fps=3.9 q=54.0 size=       1KiB time=00:00:03.60 bitrate=   1.2kbits/s speed=0.0327x elapsed=0:01:50.06    \nframe=  436 fps=3.9 q=63.0 size=       1KiB time=00:00:03.62 bitrate=   1.2kbits/s speed=0.0328x elapsed=0:01:50.61    \nframe=  440 fps=4.0 q=63.0 size=       1KiB time=00:00:03.65 bitrate=   1.2kbits/s speed=0.0329x elapsed=0:01:51.13    \nframe=  445 fps=4.0 q=61.0 size=       1KiB time=00:00:03.70 bitrate=   1.2kbits/s speed=0.0331x elapsed=0:01:51.72    \nframe=  446 fps=4.0 q=63.0 size=       1KiB time=00:00:03.70 bitrate=   1.2kbits/s speed=0.033x elapsed=0:01:52.30    \nframe=  446 fps=4.0 q=63.0 size=       1KiB time=00:00:03.70 bitrate=   1.2kbits/s speed=0.0329x elapsed=0:01:52.86    \nframe=  448 fps=4.0 q=63.0 size=       1KiB time=00:00:03.72 bitrate=   1.2kbits/s speed=0.0328x elapsed=0:01:53.40    \nframe=  450 fps=3.9 q=63.0 size=       1KiB time=00:00:03.74 bitrate=   1.2kbits/s speed=0.0328x elapsed=0:01:53.99    \nframe=  453 fps=4.0 q=61.0 size=       1KiB time=00:00:03.76 bitrate=   1.2kbits/s speed=0.0329x elapsed=0:01:54.54    \nframe=  456 fps=4.0 q=63.0 size=       1KiB time=00:00:03.79 bitrate=   1.2kbits/s speed=0.0329x elapsed=0:01:55.07    \nframe=  459 fps=4.0 q=62.0 size=       1KiB time=00:00:03.81 bitrate=   1.2kbits/s speed=0.033x elapsed=0:01:55.58    \nframe=  461 fps=4.0 q=61.0 size=       1KiB time=00:00:03.83 bitrate=   1.2kbits/s speed=0.033x elapsed=0:01:56.14    \nframe=  464 fps=4.0 q=62.0 size=       1KiB time=00:00:03.85 bitrate=   1.2kbits/s speed=0.0331x elapsed=0:01:56.69    \nframe=  468 fps=4.0 q=63.0 size=       1KiB time=00:00:03.88 bitrate=   1.2kbits/s speed=0.0331x elapsed=0:01:57.27    \nframe=  471 fps=4.0 q=62.0 size=       1KiB time=00:00:03.91 bitrate=   1.1kbits/s speed=0.0332x elapsed=0:01:57.89    \nframe=  472 fps=4.0 q=63.0 size=       1KiB time=00:00:03.92 bitrate=   1.1kbits/s speed=0.0331x elapsed=0:01:58.44    \nframe=  476 fps=4.0 q=61.0 size=       1KiB time=00:00:03.95 bitrate=   1.1kbits/s speed=0.0333x elapsed=0:01:58.96    \nframe=  480 fps=4.0 q=63.0 size=       1KiB time=00:00:03.99 bitrate=   1.1kbits/s speed=0.0334x elapsed=0:01:59.48    \nframe=  484 fps=4.0 q=63.0 size=       1KiB time=00:00:04.02 bitrate=   1.1kbits/s speed=0.0335x elapsed=0:02:00.00    \nframe=  489 fps=4.1 q=59.0 size=       1KiB time=00:00:04.05 bitrate=   1.1kbits/s speed=0.0337x elapsed=0:02:00.55    \nframe=  493 fps=4.1 q=61.0 size=       1KiB time=00:00:04.10 bitrate=   1.1kbits/s speed=0.0339x elapsed=0:02:01.10    \nframe=  494 fps=4.1 q=61.0 size=       1KiB time=00:00:04.10 bitrate=   1.1kbits/s speed=0.0338x elapsed=0:02:01.62    \nframe=  497 fps=4.1 q=54.0 size=       1KiB time=00:00:04.13 bitrate=   1.1kbits/s speed=0.0338x elapsed=0:02:02.19    \nframe=  500 fps=4.1 q=63.0 size=       1KiB time=00:00:04.15 bitrate=   1.1kbits/s speed=0.0339x elapsed=0:02:02.74    \nframe=  507 fps=4.1 q=62.0 size=       1KiB time=00:00:04.21 bitrate=   1.1kbits/s speed=0.0342x elapsed=0:02:03.29    \nframe=  509 fps=4.1 q=61.0 size=       1KiB time=00:00:04.23 bitrate=   1.1kbits/s speed=0.0342x elapsed=0:02:03.81    \nframe=  513 fps=4.1 q=54.0 size=       1KiB time=00:00:04.26 bitrate=   1.0kbits/s speed=0.0343x elapsed=0:02:04.37    \nframe=  515 fps=4.1 q=62.0 size=       1KiB time=00:00:04.26 bitrate=   1.0kbits/s speed=0.0341x elapsed=0:02:04.95    \nframe=  519 fps=4.1 q=62.0 size=       1KiB time=00:00:04.31 bitrate=   1.0kbits/s speed=0.0344x elapsed=0:02:05.50    \nframe=  521 fps=4.1 q=59.0 size=       1KiB time=00:00:04.33 bitrate=   1.0kbits/s speed=0.0344x elapsed=0:02:06.04    \nframe=  523 fps=4.1 q=62.0 size=       1KiB time=00:00:04.35 bitrate=   1.0kbits/s speed=0.0344x elapsed=0:02:06.57    \nframe=  529 fps=4.2 q=54.0 size=       1KiB time=00:00:04.40 bitrate=   1.0kbits/s speed=0.0346x elapsed=0:02:07.10    \nframe=  529 fps=4.1 q=54.0 size=       1KiB time=00:00:04.40 bitrate=   1.0kbits/s speed=0.0345x elapsed=0:02:07.61    \nframe=  529 fps=4.1 q=54.0 size=       1KiB time=00:00:04.40 bitrate=   1.0kbits/s speed=0.0343x elapsed=0:02:08.13    \nframe=  533 fps=4.1 q=61.0 size=       1KiB time=00:00:04.43 bitrate=   1.0kbits/s speed=0.0345x elapsed=0:02:08.65    \nframe=  537 fps=4.2 q=59.0 size=       1KiB time=00:00:04.46 bitrate=   1.0kbits/s speed=0.0346x elapsed=0:02:09.22    \nframe=  537 fps=4.1 q=59.0 size=       1KiB time=00:00:04.46 bitrate=   1.0kbits/s speed=0.0344x elapsed=0:02:09.77    \nframe=  541 fps=4.2 q=59.0 size=       1KiB time=00:00:04.50 bitrate=   1.0kbits/s speed=0.0345x elapsed=0:02:10.29    \nframe=  543 fps=4.2 q=61.0 size=       1KiB time=00:00:04.51 bitrate=   1.0kbits/s speed=0.0345x elapsed=0:02:10.81    \nframe=  549 fps=4.2 q=62.0 size=       1KiB time=00:00:04.56 bitrate=   1.0kbits/s speed=0.0348x elapsed=0:02:11.33    \nframe=  553 fps=4.2 q=59.0 size=       1KiB time=00:00:04.60 bitrate=   1.0kbits/s speed=0.0349x elapsed=0:02:11.87    \nframe=  557 fps=4.2 q=61.0 size=       1KiB time=00:00:04.63 bitrate=   1.0kbits/s speed=0.035x elapsed=0:02:12.43    \nframe=  561 fps=4.2 q=54.0 size=       1KiB time=00:00:04.66 bitrate=   1.0kbits/s speed=0.0351x elapsed=0:02:12.98    \nframe=  561 fps=4.2 q=54.0 size=       1KiB time=00:00:04.66 bitrate=   1.0kbits/s speed=0.035x elapsed=0:02:13.50    \nframe=  563 fps=4.2 q=62.0 size=       1KiB time=00:00:04.68 bitrate=   1.0kbits/s speed=0.0349x elapsed=0:02:14.03    \nframe=  565 fps=4.2 q=61.0 size=       1KiB time=00:00:04.70 bitrate=   1.0kbits/s speed=0.0349x elapsed=0:02:14.55    \nframe=  569 fps=4.2 q=58.0 size=       1KiB time=00:00:04.73 bitrate=   0.9kbits/s speed=0.035x elapsed=0:02:15.12    \nframe=  571 fps=4.2 q=61.0 size=       1KiB time=00:00:04.75 bitrate=   0.9kbits/s speed=0.035x elapsed=0:02:15.63    \nframe=  573 fps=4.2 q=59.0 size=       1KiB time=00:00:04.76 bitrate=   0.9kbits/s speed=0.035x elapsed=0:02:16.16    \nframe=  579 fps=4.2 q=63.0 size=       1KiB time=00:00:04.81 bitrate=   0.9kbits/s speed=0.0352x elapsed=0:02:16.68    \nframe=  585 fps=4.3 q=59.0 size=       1KiB time=00:00:04.85 bitrate=   0.9kbits/s speed=0.0353x elapsed=0:02:17.20    \nframe=  589 fps=4.3 q=62.0 size=       1KiB time=00:00:04.88 bitrate=   0.9kbits/s speed=0.0354x elapsed=0:02:17.85    \n[out#0/matroska @ 00000196ab2c90c0] video:537KiB audio:0KiB subtitle:0KiB other streams:0KiB global headers:0KiB muxing overhead: 0.577293%\nframe=  600 fps=4.3 q=63.0 Lsize=     540KiB time=00:00:04.99 bitrate= 886.5kbits/s speed=0.0361x elapsed=0:02:18.11    \n",
  "seconds": 140.9549160003662,
  "probe_out": {}
}